<svg xmlns="http://www.w3.org/2000/svg" xmlns:xlink="http://www.w3.org/1999/xlink" width="450" zoomAndPan="magnify" viewBox="0 0 1440 809.999993" height="614" preserveAspectRatio="xMidYMid meet" version="1.0"><defs><clipPath id="023a7ed271"><path d="M 0.464844 1 L 573 1 L 573 68 L 0.464844 68 Z M 0.464844 1 " clip-rule="nonzero"/></clipPath><clipPath id="6c60ede6d7"><rect x="0" width="575" y="0" height="93"/></clipPath></defs><g transform="matrix(1, 0, 0, 1, 433, 313)"><g clip-path="url(#6c60ede6d7)"><g clip-path="url(#023a7ed271)"><path fill="#6b3221" d="M 282.898438 67.933594 C 280.90625 67.933594 278.851562 67.242188 276.898438 65.875 C 272.878906 63.0625 269.523438 57.230469 270.882812 51.523438 C 272.511719 44.691406 278.015625 40.011719 283.566406 36.746094 C 276.582031 28.269531 265.085938 22.257812 254.003906 19.535156 C 240.429688 16.195312 225.617188 15.476562 209.976562 17.402344 C 196.125 19.101562 181.542969 22.875 166.628906 28.613281 C 165.484375 29.054688 164.339844 29.503906 163.195312 29.953125 C 154.960938 33.191406 146.445312 36.53125 137.421875 36.65625 C 133.230469 36.707031 128.761719 35.835938 124.75 34.050781 C 120.519531 36.007812 115.894531 37.210938 111.53125 38.140625 C 74.667969 45.976562 35.21875 42.316406 0.453125 27.828125 L 1.5625 25.191406 C 35.792969 39.453125 74.632812 43.0625 110.929688 35.34375 C 114.410156 34.601562 118.058594 33.6875 121.488281 32.332031 C 117.222656 29.691406 113.835938 25.859375 112.449219 20.863281 C 110.675781 14.464844 114.027344 8.109375 118.140625 4.648438 C 122.179688 1.25 127.082031 0.375 131.261719 2.300781 C 134.707031 3.890625 137.144531 7.019531 138.132812 11.117188 C 139.382812 16.3125 138.085938 22.328125 134.832031 26.441406 C 132.914062 28.867188 130.574219 30.789062 127.996094 32.335938 C 130.769531 33.300781 133.925781 33.839844 137.382812 33.796875 C 145.878906 33.683594 154.144531 30.4375 162.136719 27.296875 C 163.289062 26.84375 164.441406 26.390625 165.589844 25.949219 C 180.726562 20.125 195.539062 16.292969 209.621094 14.5625 C 225.613281 12.601562 240.777344 13.339844 254.695312 16.757812 C 266.476562 19.65625 278.695312 26.140625 286.09375 35.34375 C 287.265625 34.730469 288.414062 34.179688 289.5 33.679688 C 300.90625 28.433594 312.613281 24.792969 324.285156 22.867188 C 336.792969 20.804688 349.007812 20.765625 360.59375 22.746094 C 365.628906 23.605469 369.867188 24.886719 373.355469 26.609375 C 379.335938 23.894531 386.390625 23.308594 392.480469 23.183594 C 411.199219 22.8125 430.070312 25.105469 448.320312 27.328125 C 460.070312 28.757812 472.21875 30.238281 484.191406 30.988281 C 501.148438 32.046875 516.5625 31.308594 530.011719 28.792969 C 546.082031 25.789062 559.980469 20.152344 571.316406 12.027344 L 573 14.34375 C 561.316406 22.714844 547.03125 28.519531 530.546875 31.601562 C 516.863281 34.160156 501.207031 34.910156 484.015625 33.839844 C 471.957031 33.085938 459.765625 31.601562 447.972656 30.164062 C 429.824219 27.957031 411.0625 25.667969 392.539062 26.042969 C 387.429688 26.144531 381.613281 26.582031 376.511719 28.417969 C 379.140625 30.179688 381.203125 32.28125 382.71875 34.746094 C 385.359375 39.027344 385.492188 45.089844 383.050781 49.832031 C 381.144531 53.53125 377.917969 55.816406 374.207031 56.089844 C 369.984375 56.402344 366.285156 54.167969 364.0625 49.953125 C 361.140625 44.414062 361.640625 37.167969 365.257812 32.714844 C 366.695312 30.941406 368.371094 29.496094 370.203125 28.320312 C 367.347656 27.140625 363.988281 26.226562 360.109375 25.5625 C 348.84375 23.632812 336.949219 23.675781 324.757812 25.6875 C 313.339844 27.570312 301.882812 31.132812 290.710938 36.273438 C 289.789062 36.699219 288.816406 37.164062 287.824219 37.671875 C 291.28125 42.75 293.28125 48.5625 293.058594 54.984375 C 292.878906 60.199219 290.894531 64.398438 287.617188 66.515625 C 286.144531 67.464844 284.539062 67.933594 282.898438 67.933594 Z M 285.300781 39.046875 C 280.175781 42.015625 275.105469 46.214844 273.679688 52.1875 C 272.625 56.609375 275.402344 61.339844 278.550781 63.542969 C 280.054688 64.597656 283.027344 66.070312 286.042969 64.125 C 289.566406 61.847656 290.109375 56.910156 290.179688 54.890625 C 290.386719 49.03125 288.519531 43.710938 285.300781 39.046875 Z M 373.308594 29.824219 C 371.09375 30.992188 369.101562 32.519531 367.484375 34.511719 C 364.164062 38.597656 364.527344 44.707031 366.597656 48.628906 C 367.578125 50.484375 369.851562 53.550781 373.984375 53.246094 C 377.664062 52.972656 379.636719 50.175781 380.484375 48.535156 C 382.457031 44.707031 382.363281 39.652344 380.261719 36.242188 C 378.679688 33.675781 376.375 31.542969 373.308594 29.824219 Z M 126.644531 4.144531 C 124.40625 4.144531 122.101562 5.058594 119.992188 6.832031 C 115.953125 10.230469 113.988281 15.6875 115.214844 20.105469 C 116.347656 24.191406 119.671875 28.273438 124.671875 30.90625 C 127.710938 29.355469 130.449219 27.347656 132.5625 24.679688 C 135.296875 21.230469 136.382812 16.167969 135.328125 11.789062 C 134.550781 8.558594 132.671875 6.113281 130.042969 4.898438 C 128.957031 4.390625 127.808594 4.144531 126.644531 4.144531 Z M 126.644531 4.144531 " fill-opacity="1" fill-rule="nonzero"/></g><path fill="#f0be41" d="M 441.96875 42.214844 C 441.957031 42.359375 441.941406 42.503906 441.921875 42.640625 C 441.625 44.984375 440.496094 46.867188 438.933594 48.210938 C 438.78125 48.34375 438.625 48.472656 438.464844 48.59375 C 434.863281 51.3125 429.371094 51.414062 426.261719 48.132812 C 425.996094 47.851562 425.75 47.558594 425.519531 47.25 C 425.410156 47.101562 425.304688 46.953125 425.203125 46.796875 C 424.332031 45.488281 423.765625 43.972656 423.566406 42.425781 C 423.515625 42.054688 423.488281 41.675781 423.484375 41.300781 C 423.46875 40.109375 423.679688 38.925781 424.140625 37.820312 C 424.378906 37.246094 424.691406 36.71875 425.0625 36.230469 C 425.109375 36.164062 425.160156 36.101562 425.210938 36.035156 C 425.960938 35.09375 426.90625 34.292969 427.894531 33.574219 C 429.835938 32.164062 435.628906 31.21875 439.46875 34.539062 C 439.921875 34.9375 440.304688 35.394531 440.621094 35.898438 C 440.699219 36.023438 440.769531 36.144531 440.84375 36.273438 C 441.570312 37.617188 441.886719 39.214844 441.980469 40.753906 C 442.007812 41.257812 442.007812 41.746094 441.96875 42.214844 Z M 441.96875 42.214844 " fill-opacity="1" fill-rule="nonzero"/><path fill="#6b3221" d="M 436.636719 33.042969 C 433.777344 33.691406 433.554688 33.820312 430.351562 32.605469 C 431.074219 30.363281 431.707031 27.667969 432.230469 27.011719 C 432.242188 27 432.269531 26.984375 432.308594 26.976562 C 432.535156 26.925781 433.1875 26.925781 433.894531 26.976562 C 433.902344 26.976562 433.910156 26.976562 433.921875 26.980469 C 434.46875 27.023438 435.046875 27.097656 435.488281 27.199219 C 435.53125 27.214844 435.554688 27.234375 435.5625 27.246094 C 435.984375 27.960938 436.234375 30.71875 436.636719 33.042969 Z M 436.636719 33.042969 " fill-opacity="1" fill-rule="nonzero"/><path fill="#f2d791" d="M 427.414062 47.324219 C 428.285156 48.195312 429.527344 48.878906 430.726562 48.582031 C 431.296875 48.4375 431.796875 48.089844 432.234375 47.695312 C 432.636719 47.335938 432.996094 46.925781 433.242188 46.445312 C 434 44.953125 433.410156 43.070312 432.292969 41.816406 C 431.058594 40.429688 429.152344 39.597656 427.300781 39.820312 C 426.875 39.871094 426.464844 40.019531 426.113281 40.261719 C 423.980469 41.753906 426.050781 45.960938 427.414062 47.324219 Z M 427.414062 47.324219 " fill-opacity="1" fill-rule="nonzero"/><path fill="#3dc2e3" d="M 292.765625 80.152344 C 292.78125 80.296875 292.792969 80.4375 292.796875 80.578125 C 292.917969 82.9375 292.128906 84.988281 290.824219 86.578125 C 290.695312 86.734375 290.566406 86.886719 290.425781 87.03125 C 287.351562 90.332031 281.960938 91.378906 278.328125 88.679688 C 278.019531 88.453125 277.722656 88.203125 277.441406 87.941406 C 277.308594 87.816406 277.175781 87.683594 277.050781 87.550781 C 275.964844 86.410156 275.144531 85.019531 274.671875 83.53125 C 274.558594 83.167969 274.464844 82.800781 274.398438 82.433594 C 274.175781 81.261719 274.175781 80.0625 274.4375 78.894531 C 274.570312 78.285156 274.789062 77.710938 275.066406 77.164062 C 275.105469 77.09375 275.144531 77.023438 275.183594 76.949219 C 275.757812 75.894531 276.550781 74.941406 277.394531 74.0625 C 279.058594 72.339844 284.601562 70.410156 288.964844 73.023438 C 289.480469 73.332031 289.9375 73.71875 290.335938 74.15625 C 290.433594 74.265625 290.527344 74.378906 290.617188 74.492188 C 291.566406 75.6875 292.160156 77.210938 292.523438 78.707031 C 292.640625 79.203125 292.722656 79.683594 292.765625 80.152344 Z M 292.765625 80.152344 " fill-opacity="1" fill-rule="nonzero"/><path fill="#6b3221" d="M 285.917969 72.035156 C 283.21875 73.167969 283.015625 73.332031 279.652344 72.6875 C 279.972656 70.355469 280.125 67.589844 280.523438 66.855469 C 280.53125 66.839844 280.558594 66.824219 280.597656 66.804688 C 280.8125 66.714844 281.453125 66.601562 282.15625 66.53125 C 282.167969 66.53125 282.175781 66.53125 282.1875 66.53125 C 282.734375 66.476562 283.316406 66.449219 283.765625 66.476562 C 283.808594 66.484375 283.835938 66.496094 283.847656 66.507812 C 284.386719 67.148438 285.113281 69.820312 285.917969 72.035156 Z M 285.917969 72.035156 " fill-opacity="1" fill-rule="nonzero"/><path fill="#7cd0e6" d="M 279.324219 87.691406 C 280.335938 88.402344 281.675781 88.859375 282.808594 88.359375 C 283.347656 88.121094 283.777344 87.691406 284.140625 87.226562 C 284.472656 86.804688 284.757812 86.335938 284.914062 85.824219 C 285.402344 84.222656 284.488281 82.46875 283.175781 81.429688 C 281.714844 80.277344 279.695312 79.785156 277.90625 80.320312 C 277.496094 80.441406 277.117188 80.660156 276.816406 80.960938 C 274.972656 82.800781 277.746094 86.582031 279.324219 87.691406 Z M 279.324219 87.691406 " fill-opacity="1" fill-rule="nonzero"/><path fill="#3dc2e3" d="M 22.582031 48.097656 C 22.558594 48.242188 22.535156 48.382812 22.503906 48.519531 C 22.027344 50.832031 20.75 52.621094 19.085938 53.835938 C 18.925781 53.957031 18.757812 54.070312 18.585938 54.179688 C 14.777344 56.605469 9.296875 56.28125 6.457031 52.765625 C 6.214844 52.464844 5.992188 52.152344 5.789062 51.824219 C 5.6875 51.671875 5.597656 51.511719 5.507812 51.351562 C 4.742188 49.976562 4.296875 48.425781 4.21875 46.867188 C 4.203125 46.492188 4.203125 46.113281 4.226562 45.738281 C 4.304688 44.550781 4.609375 43.386719 5.15625 42.320312 C 5.441406 41.765625 5.796875 41.265625 6.199219 40.808594 C 6.253906 40.746094 6.308594 40.683594 6.363281 40.625 C 7.1875 39.746094 8.195312 39.019531 9.238281 38.378906 C 11.285156 37.125 17.132812 36.636719 20.699219 40.246094 C 21.125 40.675781 21.464844 41.164062 21.742188 41.691406 C 21.8125 41.816406 21.875 41.953125 21.933594 42.085938 C 22.554688 43.476562 22.742188 45.097656 22.714844 46.640625 C 22.703125 47.148438 22.660156 47.632812 22.582031 48.097656 Z M 22.582031 48.097656 " fill-opacity="1" fill-rule="nonzero"/><path fill="#6b3221" d="M 17.996094 38.535156 C 15.09375 38.960938 14.863281 39.070312 11.765625 37.609375 C 12.660156 35.429688 13.503906 32.792969 14.078125 32.179688 C 14.089844 32.167969 14.121094 32.15625 14.160156 32.148438 C 14.394531 32.113281 15.042969 32.164062 15.738281 32.269531 C 15.746094 32.269531 15.757812 32.273438 15.769531 32.273438 C 16.308594 32.359375 16.882812 32.476562 17.308594 32.613281 C 17.347656 32.632812 17.371094 32.652344 17.382812 32.667969 C 17.746094 33.421875 17.78125 36.191406 17.996094 38.535156 Z M 17.996094 38.535156 " fill-opacity="1" fill-rule="nonzero"/><path fill="#7cd0e6" d="M 7.671875 52.050781 C 8.46875 52.988281 9.652344 53.769531 10.871094 53.566406 C 11.453125 53.46875 11.980469 53.15625 12.445312 52.800781 C 12.875 52.472656 13.269531 52.09375 13.550781 51.636719 C 14.425781 50.207031 13.984375 48.285156 12.972656 46.949219 C 11.851562 45.46875 10.015625 44.492188 8.152344 44.5625 C 7.722656 44.582031 7.304688 44.695312 6.9375 44.914062 C 4.6875 46.238281 6.425781 50.589844 7.671875 52.050781 Z M 7.671875 52.050781 " fill-opacity="1" fill-rule="nonzero"/><path fill="#a34bb3" d="M 176.167969 38.53125 C 176.210938 38.667969 176.25 38.804688 176.285156 38.941406 C 176.894531 41.226562 176.554688 43.390625 175.609375 45.21875 C 175.515625 45.394531 175.414062 45.570312 175.3125 45.742188 C 172.992188 49.605469 167.9375 51.738281 163.820312 49.84375 C 163.46875 49.683594 163.128906 49.503906 162.796875 49.300781 C 162.640625 49.207031 162.488281 49.105469 162.335938 49 C 161.035156 48.109375 159.941406 46.914062 159.175781 45.554688 C 158.988281 45.226562 158.820312 44.886719 158.675781 44.539062 C 158.214844 43.441406 157.960938 42.265625 157.972656 41.070312 C 157.980469 40.445312 158.074219 39.839844 158.230469 39.25 C 158.253906 39.171875 158.273438 39.089844 158.296875 39.011719 C 158.636719 37.863281 159.214844 36.765625 159.863281 35.734375 C 161.132812 33.703125 166.152344 30.675781 170.960938 32.335938 C 171.535156 32.53125 172.058594 32.820312 172.539062 33.167969 C 172.660156 33.253906 172.773438 33.34375 172.886719 33.433594 C 174.066406 34.40625 174.960938 35.773438 175.628906 37.167969 C 175.847656 37.625 176.027344 38.078125 176.167969 38.53125 Z M 176.167969 38.53125 " fill-opacity="1" fill-rule="nonzero"/><path fill="#6b3221" d="M 167.777344 31.996094 C 165.371094 33.664062 165.210938 33.863281 161.785156 33.925781 C 161.609375 31.574219 161.183594 28.839844 161.421875 28.039062 C 161.429688 28.019531 161.449219 28 161.484375 27.972656 C 161.675781 27.835938 162.277344 27.597656 162.949219 27.386719 C 162.960938 27.382812 162.96875 27.378906 162.976562 27.375 C 163.5 27.210938 164.066406 27.066406 164.511719 27 C 164.554688 27 164.585938 27.003906 164.597656 27.011719 C 165.261719 27.527344 166.53125 29.992188 167.777344 31.996094 Z M 167.777344 31.996094 " fill-opacity="1" fill-rule="nonzero"/><path fill="#c27acf" d="M 164.582031 48.667969 C 165.71875 49.152344 167.125 49.328125 168.128906 48.605469 C 168.609375 48.261719 168.9375 47.75 169.195312 47.226562 C 169.429688 46.742188 169.613281 46.230469 169.660156 45.691406 C 169.804688 44.027344 168.546875 42.5 167.042969 41.753906 C 165.371094 40.921875 163.292969 40.859375 161.65625 41.753906 C 161.277344 41.957031 160.957031 42.246094 160.722656 42.601562 C 159.308594 44.78125 162.808594 47.910156 164.582031 48.667969 Z M 164.582031 48.667969 " fill-opacity="1" fill-rule="nonzero"/><path fill="#6d9c17" d="M 526.148438 45.867188 C 526.160156 46.011719 526.171875 46.152344 526.175781 46.292969 C 526.265625 48.65625 525.457031 50.691406 524.132812 52.269531 C 524.003906 52.421875 523.871094 52.574219 523.730469 52.71875 C 520.613281 55.980469 515.210938 56.960938 511.609375 54.222656 C 511.304688 53.992188 511.011719 53.738281 510.734375 53.46875 C 510.601562 53.34375 510.472656 53.210938 510.347656 53.074219 C 509.277344 51.925781 508.472656 50.519531 508.023438 49.027344 C 507.914062 48.664062 507.824219 48.296875 507.757812 47.925781 C 507.554688 46.757812 507.566406 45.554688 507.839844 44.390625 C 507.984375 43.785156 508.207031 43.214844 508.492188 42.671875 C 508.53125 42.601562 508.566406 42.527344 508.609375 42.457031 C 509.195312 41.40625 510 40.464844 510.859375 39.597656 C 512.542969 37.890625 518.109375 36.03125 522.4375 38.691406 C 522.953125 39.007812 523.402344 39.398438 523.792969 39.847656 C 523.890625 39.957031 523.984375 40.070312 524.074219 40.183594 C 525.007812 41.394531 525.582031 42.921875 525.925781 44.421875 C 526.035156 44.914062 526.109375 45.398438 526.148438 45.867188 Z M 526.148438 45.867188 " fill-opacity="1" fill-rule="nonzero"/><path fill="#6b3221" d="M 519.398438 37.667969 C 516.683594 38.769531 516.484375 38.933594 513.125 38.25 C 513.472656 35.921875 513.660156 33.15625 514.066406 32.429688 C 514.074219 32.414062 514.097656 32.394531 514.140625 32.378906 C 514.355469 32.285156 514.996094 32.183594 515.703125 32.121094 C 515.710938 32.121094 515.71875 32.121094 515.730469 32.121094 C 516.28125 32.070312 516.859375 32.054688 517.3125 32.082031 C 517.355469 32.09375 517.382812 32.105469 517.394531 32.121094 C 517.929688 32.761719 518.625 35.445312 519.398438 37.667969 Z M 519.398438 37.667969 " fill-opacity="1" fill-rule="nonzero"/><path fill="#a2cf4e" d="M 512.617188 53.246094 C 513.621094 53.96875 514.953125 54.441406 516.089844 53.957031 C 516.632812 53.722656 517.070312 53.296875 517.433594 52.839844 C 517.769531 52.421875 518.0625 51.960938 518.226562 51.449219 C 518.730469 49.855469 517.84375 48.089844 516.539062 47.035156 C 515.089844 45.863281 513.074219 45.351562 511.28125 45.863281 C 510.867188 45.980469 510.492188 46.191406 510.1875 46.492188 C 508.324219 48.304688 511.054688 52.121094 512.617188 53.246094 Z M 512.617188 53.246094 " fill-opacity="1" fill-rule="nonzero"/><path fill="#6d9c17" d="M 240.859375 31.648438 C 240.824219 31.789062 240.792969 31.929688 240.753906 32.0625 C 240.121094 34.339844 238.730469 36.039062 236.992188 37.144531 C 236.820312 37.253906 236.648438 37.355469 236.472656 37.453125 C 232.511719 39.628906 227.0625 38.945312 224.460938 35.25 C 224.238281 34.9375 224.035156 34.609375 223.851562 34.269531 C 223.765625 34.109375 223.683594 33.941406 223.605469 33.777344 C 222.933594 32.359375 222.589844 30.78125 222.617188 29.222656 C 222.625 28.84375 222.648438 28.46875 222.703125 28.09375 C 222.859375 26.917969 223.238281 25.777344 223.851562 24.746094 C 224.171875 24.214844 224.558594 23.734375 224.996094 23.304688 C 225.054688 23.246094 225.113281 23.191406 225.171875 23.136719 C 226.054688 22.3125 227.105469 21.652344 228.1875 21.082031 C 230.3125 19.964844 236.179688 19.859375 239.5 23.695312 C 239.894531 24.148438 240.203125 24.65625 240.441406 25.199219 C 240.503906 25.332031 240.554688 25.464844 240.605469 25.601562 C 241.128906 27.035156 241.214844 28.664062 241.085938 30.199219 C 241.039062 30.707031 240.964844 31.1875 240.859375 31.648438 Z M 240.859375 31.648438 " fill-opacity="1" fill-rule="nonzero"/><path fill="#6b3221" d="M 236.914062 21.804688 C 233.992188 22.039062 233.75 22.136719 230.757812 20.476562 C 231.796875 18.363281 232.8125 15.78125 233.425781 15.210938 C 233.4375 15.195312 233.464844 15.1875 233.511719 15.183594 C 233.746094 15.164062 234.386719 15.257812 235.074219 15.410156 C 235.085938 15.414062 235.09375 15.414062 235.101562 15.417969 C 235.640625 15.535156 236.199219 15.695312 236.617188 15.855469 C 236.65625 15.878906 236.675781 15.898438 236.6875 15.914062 C 237.003906 16.6875 236.851562 19.453125 236.914062 21.804688 Z M 236.914062 21.804688 " fill-opacity="1" fill-rule="nonzero"/><path fill="#a2cf4e" d="M 225.71875 34.617188 C 226.453125 35.605469 227.582031 36.457031 228.816406 36.335938 C 229.402344 36.277344 229.945312 36.003906 230.4375 35.675781 C 230.886719 35.375 231.304688 35.023438 231.617188 34.585938 C 232.582031 33.21875 232.273438 31.269531 231.351562 29.871094 C 230.328125 28.320312 228.5625 27.226562 226.695312 27.175781 C 226.269531 27.164062 225.84375 27.253906 225.460938 27.449219 C 223.125 28.621094 224.570312 33.078125 225.71875 34.617188 Z M 225.71875 34.617188 " fill-opacity="1" fill-rule="nonzero"/><path fill="#c22f38" d="M 364.945312 67.675781 C 364.851562 67.785156 364.761719 67.890625 364.664062 68 C 363.070312 69.75 361.054688 70.644531 359.003906 70.855469 C 358.800781 70.875 358.597656 70.890625 358.398438 70.894531 C 353.875 71.066406 349.320312 68.015625 348.671875 63.554688 C 348.613281 63.175781 348.585938 62.792969 348.574219 62.40625 C 348.566406 62.222656 348.566406 62.039062 348.574219 61.855469 C 348.617188 60.289062 349.023438 58.730469 349.753906 57.34375 C 349.929688 57.007812 350.125 56.683594 350.339844 56.375 C 351.015625 55.394531 351.871094 54.542969 352.886719 53.902344 C 353.414062 53.570312 353.976562 53.316406 354.5625 53.125 C 354.640625 53.101562 354.71875 53.074219 354.796875 53.054688 C 355.957031 52.710938 357.195312 52.597656 358.417969 52.570312 C 360.820312 52.523438 366.109375 55.050781 367.335938 59.960938 C 367.484375 60.546875 367.527344 61.136719 367.496094 61.730469 C 367.488281 61.875 367.476562 62.019531 367.457031 62.164062 C 367.277344 63.675781 366.613281 65.167969 365.800781 66.480469 C 365.535156 66.914062 365.25 67.308594 364.945312 67.675781 Z M 364.945312 67.675781 " fill-opacity="1" fill-rule="nonzero"/><path fill="#6b3221" d="M 365.882812 57.121094 C 363.167969 56.023438 362.910156 56 360.988281 53.179688 C 362.878906 51.753906 364.953125 49.90625 365.757812 49.667969 C 365.773438 49.664062 365.804688 49.667969 365.84375 49.6875 C 366.0625 49.773438 366.59375 50.144531 367.140625 50.589844 C 367.144531 50.59375 367.15625 50.601562 367.160156 50.605469 C 367.585938 50.953125 368.011719 51.34375 368.316406 51.675781 C 368.339844 51.710938 368.351562 51.742188 368.347656 51.761719 C 368.28125 52.589844 366.894531 54.988281 365.882812 57.121094 Z M 365.882812 57.121094 " fill-opacity="1" fill-rule="nonzero"/><path fill="#e3666e" d="M 350.082031 63.550781 C 350.289062 64.761719 350.914062 66.027344 352.066406 66.46875 C 352.617188 66.679688 353.226562 66.679688 353.8125 66.605469 C 354.347656 66.539062 354.882812 66.414062 355.359375 66.160156 C 356.84375 65.371094 357.445312 63.492188 357.257812 61.832031 C 357.046875 59.988281 355.96875 58.222656 354.320312 57.34375 C 353.945312 57.144531 353.523438 57.035156 353.09375 57.035156 C 350.484375 57.035156 349.753906 61.660156 350.082031 63.550781 Z M 350.082031 63.550781 " fill-opacity="1" fill-rule="nonzero"/><path fill="#c22f38" d="M 99.886719 52.460938 C 99.898438 52.605469 99.910156 52.746094 99.914062 52.886719 C 100.03125 55.246094 99.246094 57.296875 97.941406 58.886719 C 97.8125 59.039062 97.683594 59.195312 97.542969 59.339844 C 94.46875 62.640625 89.078125 63.683594 85.445312 60.984375 C 85.136719 60.757812 84.839844 60.507812 84.558594 60.242188 C 84.425781 60.117188 84.292969 59.988281 84.167969 59.851562 C 83.082031 58.714844 82.261719 57.320312 81.792969 55.832031 C 81.679688 55.472656 81.585938 55.101562 81.519531 54.734375 C 81.296875 53.566406 81.296875 52.363281 81.558594 51.195312 C 81.691406 50.589844 81.910156 50.015625 82.1875 49.46875 C 82.226562 49.394531 82.265625 49.324219 82.304688 49.253906 C 82.878906 48.199219 83.671875 47.242188 84.519531 46.367188 C 86.183594 44.644531 91.726562 42.714844 96.085938 45.328125 C 96.605469 45.636719 97.058594 46.023438 97.457031 46.464844 C 97.558594 46.570312 97.648438 46.683594 97.742188 46.796875 C 98.691406 47.992188 99.285156 49.515625 99.644531 51.011719 C 99.761719 51.511719 99.84375 51.992188 99.886719 52.460938 Z M 99.886719 52.460938 " fill-opacity="1" fill-rule="nonzero"/><path fill="#6b3221" d="M 93.039062 44.34375 C 90.335938 45.476562 90.136719 45.640625 86.773438 44.996094 C 87.09375 42.664062 87.25 39.898438 87.648438 39.164062 C 87.65625 39.148438 87.679688 39.128906 87.722656 39.113281 C 87.9375 39.019531 88.578125 38.90625 89.28125 38.839844 C 89.289062 38.839844 89.300781 38.835938 89.3125 38.835938 C 89.859375 38.78125 90.441406 38.753906 90.890625 38.78125 C 90.929688 38.789062 90.960938 38.800781 90.972656 38.8125 C 91.511719 39.453125 92.238281 42.125 93.039062 44.34375 Z M 93.039062 44.34375 " fill-opacity="1" fill-rule="nonzero"/><path fill="#e3666e" d="M 86.441406 59.992188 C 87.453125 60.703125 88.792969 61.160156 89.925781 60.660156 C 90.464844 60.421875 90.894531 59.992188 91.257812 59.53125 C 91.589844 59.109375 91.875 58.640625 92.03125 58.128906 C 92.519531 56.527344 91.609375 54.777344 90.292969 53.734375 C 88.832031 52.578125 86.8125 52.089844 85.023438 52.625 C 84.613281 52.746094 84.234375 52.964844 83.933594 53.269531 C 82.089844 55.101562 84.863281 58.886719 86.441406 59.992188 Z M 86.441406 59.992188 " fill-opacity="1" fill-rule="nonzero"/></g></g></svg>